<mxfile host="app.diagrams.net" modified="2020-10-15T07:37:47.949Z" agent="5.0 (Windows NT 10.0; Win64; x64) AppleWebKit/537.36 (KHTML, like Gecko) Chrome/81.0.4044.138 Safari/537.36" etag="Aqav-BmM5K3Qz66pJw_w" version="13.8.0" type="github">
  <diagram id="ZK8-9hgX-thy4aVmCkVG" name="Page-1">
    <mxGraphModel dx="2031" dy="2303" grid="1" gridSize="10" guides="1" tooltips="1" connect="1" arrows="1" fold="1" page="1" pageScale="1" pageWidth="827" pageHeight="1169" math="0" shadow="0">
      <root>
        <mxCell id="0" />
        <mxCell id="1" parent="0" />
        <mxCell id="rkM7MUImtoLyCxUK9l4K-1" value="" style="whiteSpace=wrap;html=1;aspect=fixed;" vertex="1" parent="1">
          <mxGeometry x="150" y="150" width="230" height="230" as="geometry" />
        </mxCell>
        <mxCell id="rkM7MUImtoLyCxUK9l4K-2" value="YEureka服务集群" style="rounded=1;whiteSpace=wrap;html=1;fillColor=#d5e8d4;strokeColor=#82b366;" vertex="1" parent="1">
          <mxGeometry x="165" y="300" width="200" height="60" as="geometry" />
        </mxCell>
        <mxCell id="rkM7MUImtoLyCxUK9l4K-3" value="IDC-A" style="text;html=1;strokeColor=none;fillColor=none;align=center;verticalAlign=middle;whiteSpace=wrap;rounded=0;" vertex="1" parent="1">
          <mxGeometry x="150" y="150" width="60" height="20" as="geometry" />
        </mxCell>
        <mxCell id="rkM7MUImtoLyCxUK9l4K-4" value="其他集群" style="rounded=1;whiteSpace=wrap;html=1;fillColor=#f8cecc;strokeColor=#b85450;" vertex="1" parent="1">
          <mxGeometry x="280" y="190" width="80" height="60" as="geometry" />
        </mxCell>
        <mxCell id="rkM7MUImtoLyCxUK9l4K-5" value="" style="endArrow=classic;startArrow=classic;html=1;fillColor=#e3c800;strokeColor=#B09500;strokeWidth=2;" edge="1" parent="1" target="rkM7MUImtoLyCxUK9l4K-4">
          <mxGeometry width="50" height="50" relative="1" as="geometry">
            <mxPoint x="320" y="300" as="sourcePoint" />
            <mxPoint x="550" y="470" as="targetPoint" />
          </mxGeometry>
        </mxCell>
        <mxCell id="rkM7MUImtoLyCxUK9l4K-6" value="其他集群" style="rounded=1;whiteSpace=wrap;html=1;fillColor=#e1d5e7;strokeColor=#9673a6;" vertex="1" parent="1">
          <mxGeometry x="170" y="190" width="80" height="60" as="geometry" />
        </mxCell>
        <mxCell id="rkM7MUImtoLyCxUK9l4K-7" value="" style="endArrow=classic;startArrow=classic;html=1;entryX=0.225;entryY=0;entryDx=0;entryDy=0;fillColor=#e3c800;strokeColor=#B09500;strokeWidth=2;exitX=0.5;exitY=1;exitDx=0;exitDy=0;entryPerimeter=0;" edge="1" parent="1" source="rkM7MUImtoLyCxUK9l4K-6" target="rkM7MUImtoLyCxUK9l4K-2">
          <mxGeometry width="50" height="50" relative="1" as="geometry">
            <mxPoint x="210" y="260" as="sourcePoint" />
            <mxPoint x="328.75" y="280" as="targetPoint" />
          </mxGeometry>
        </mxCell>
        <mxCell id="rkM7MUImtoLyCxUK9l4K-8" value="" style="endArrow=classic;startArrow=classic;html=1;entryX=0;entryY=0.5;entryDx=0;entryDy=0;fillColor=#e51400;strokeColor=#B20000;strokeWidth=2;" edge="1" parent="1" source="rkM7MUImtoLyCxUK9l4K-6" target="rkM7MUImtoLyCxUK9l4K-4">
          <mxGeometry width="50" height="50" relative="1" as="geometry">
            <mxPoint x="510" y="500" as="sourcePoint" />
            <mxPoint x="560" y="450" as="targetPoint" />
          </mxGeometry>
        </mxCell>
        <mxCell id="rkM7MUImtoLyCxUK9l4K-33" value="" style="endArrow=classic;startArrow=classic;html=1;entryX=0;entryY=0.5;entryDx=0;entryDy=0;fillColor=#e51400;strokeColor=#B20000;strokeWidth=2;exitX=0.002;exitY=0.539;exitDx=0;exitDy=0;exitPerimeter=0;" edge="1" parent="1" source="rkM7MUImtoLyCxUK9l4K-60" target="rkM7MUImtoLyCxUK9l4K-1">
          <mxGeometry width="50" height="50" relative="1" as="geometry">
            <mxPoint x="265" y="679.9999999999995" as="sourcePoint" />
            <mxPoint x="400" y="420" as="targetPoint" />
            <Array as="points">
              <mxPoint x="80" y="804" />
              <mxPoint x="80" y="265" />
            </Array>
          </mxGeometry>
        </mxCell>
        <mxCell id="rkM7MUImtoLyCxUK9l4K-34" value="" style="endArrow=classic;startArrow=classic;html=1;entryX=0.5;entryY=1;entryDx=0;entryDy=0;exitX=1;exitY=0.5;exitDx=0;exitDy=0;strokeWidth=2;fillColor=#e51400;strokeColor=#B20000;" edge="1" parent="1" target="rkM7MUImtoLyCxUK9l4K-68">
          <mxGeometry width="50" height="50" relative="1" as="geometry">
            <mxPoint x="250" y="909.9999999999995" as="sourcePoint" />
            <mxPoint x="859.9999999999995" y="909.9999999999995" as="targetPoint" />
            <Array as="points">
              <mxPoint x="250" y="960" />
              <mxPoint x="1105" y="960" />
            </Array>
          </mxGeometry>
        </mxCell>
        <mxCell id="rkM7MUImtoLyCxUK9l4K-35" value="" style="endArrow=classic;startArrow=classic;html=1;strokeWidth=2;fillColor=#e51400;strokeColor=#B20000;exitX=1;exitY=0.5;exitDx=0;exitDy=0;entryX=1;entryY=0.5;entryDx=0;entryDy=0;" edge="1" parent="1" source="rkM7MUImtoLyCxUK9l4K-51" target="rkM7MUImtoLyCxUK9l4K-68">
          <mxGeometry width="50" height="50" relative="1" as="geometry">
            <mxPoint x="1104.9999999999995" y="380.00000000000045" as="sourcePoint" />
            <mxPoint x="1104.9999999999995" y="679.9999999999995" as="targetPoint" />
            <Array as="points">
              <mxPoint x="1280" y="265" />
              <mxPoint x="1280" y="795" />
            </Array>
          </mxGeometry>
        </mxCell>
        <mxCell id="rkM7MUImtoLyCxUK9l4K-36" value="" style="endArrow=classic;startArrow=classic;html=1;strokeWidth=2;fillColor=#e51400;strokeColor=#B20000;exitX=0.5;exitY=0;exitDx=0;exitDy=0;entryX=0.5;entryY=0;entryDx=0;entryDy=0;" edge="1" parent="1" source="rkM7MUImtoLyCxUK9l4K-51" target="rkM7MUImtoLyCxUK9l4K-1">
          <mxGeometry width="50" height="50" relative="1" as="geometry">
            <mxPoint x="930" y="20" as="sourcePoint" />
            <mxPoint x="500" y="230" as="targetPoint" />
            <Array as="points">
              <mxPoint x="1105" y="80" />
              <mxPoint x="265" y="80" />
            </Array>
          </mxGeometry>
        </mxCell>
        <mxCell id="rkM7MUImtoLyCxUK9l4K-42" value="" style="endArrow=classic;startArrow=classic;html=1;fillColor=#e51400;strokeColor=#B20000;strokeWidth=2;" edge="1" parent="1">
          <mxGeometry width="50" height="50" relative="1" as="geometry">
            <mxPoint x="165" y="-50.99999999999977" as="sourcePoint" />
            <mxPoint x="325" y="-50.99999999999977" as="targetPoint" />
          </mxGeometry>
        </mxCell>
        <mxCell id="rkM7MUImtoLyCxUK9l4K-43" value="" style="endArrow=classic;startArrow=classic;html=1;fillColor=#76608a;strokeColor=#432D57;strokeWidth=2;" edge="1" parent="1">
          <mxGeometry width="50" height="50" relative="1" as="geometry">
            <mxPoint x="165" y="-10.000000000000227" as="sourcePoint" />
            <mxPoint x="325" y="-10.000000000000227" as="targetPoint" />
          </mxGeometry>
        </mxCell>
        <mxCell id="rkM7MUImtoLyCxUK9l4K-44" value="" style="endArrow=classic;startArrow=classic;html=1;fillColor=#e3c800;strokeColor=#B09500;strokeWidth=2;" edge="1" parent="1">
          <mxGeometry width="50" height="50" relative="1" as="geometry">
            <mxPoint x="165" y="-90.00000000000023" as="sourcePoint" />
            <mxPoint x="325" y="-90.00000000000023" as="targetPoint" />
          </mxGeometry>
        </mxCell>
        <mxCell id="rkM7MUImtoLyCxUK9l4K-45" value="服务注册和发现" style="text;html=1;strokeColor=none;fillColor=none;align=center;verticalAlign=middle;whiteSpace=wrap;rounded=0;" vertex="1" parent="1">
          <mxGeometry x="355" y="-100" width="90" height="20" as="geometry" />
        </mxCell>
        <mxCell id="rkM7MUImtoLyCxUK9l4K-46" value="RPC" style="text;html=1;strokeColor=none;fillColor=none;align=center;verticalAlign=middle;whiteSpace=wrap;rounded=0;" vertex="1" parent="1">
          <mxGeometry x="355" y="-60" width="60" height="20" as="geometry" />
        </mxCell>
        <mxCell id="rkM7MUImtoLyCxUK9l4K-47" value="发现同步" style="text;html=1;strokeColor=none;fillColor=none;align=center;verticalAlign=middle;whiteSpace=wrap;rounded=0;" vertex="1" parent="1">
          <mxGeometry x="355" y="-20" width="60" height="20" as="geometry" />
        </mxCell>
        <mxCell id="rkM7MUImtoLyCxUK9l4K-51" value="" style="whiteSpace=wrap;html=1;aspect=fixed;" vertex="1" parent="1">
          <mxGeometry x="990" y="150" width="230" height="230" as="geometry" />
        </mxCell>
        <mxCell id="rkM7MUImtoLyCxUK9l4K-52" value="YEureka服务集群" style="rounded=1;whiteSpace=wrap;html=1;fillColor=#d5e8d4;strokeColor=#82b366;" vertex="1" parent="1">
          <mxGeometry x="1005" y="300" width="200" height="60" as="geometry" />
        </mxCell>
        <mxCell id="rkM7MUImtoLyCxUK9l4K-53" value="IDC-A" style="text;html=1;strokeColor=none;fillColor=none;align=center;verticalAlign=middle;whiteSpace=wrap;rounded=0;" vertex="1" parent="1">
          <mxGeometry x="990" y="150" width="60" height="20" as="geometry" />
        </mxCell>
        <mxCell id="rkM7MUImtoLyCxUK9l4K-54" value="其他集群" style="rounded=1;whiteSpace=wrap;html=1;fillColor=#f8cecc;strokeColor=#b85450;" vertex="1" parent="1">
          <mxGeometry x="1120" y="190" width="80" height="60" as="geometry" />
        </mxCell>
        <mxCell id="rkM7MUImtoLyCxUK9l4K-55" value="" style="endArrow=classic;startArrow=classic;html=1;fillColor=#e3c800;strokeColor=#B09500;strokeWidth=2;" edge="1" parent="1" target="rkM7MUImtoLyCxUK9l4K-54">
          <mxGeometry width="50" height="50" relative="1" as="geometry">
            <mxPoint x="1160" y="300" as="sourcePoint" />
            <mxPoint x="1390" y="470" as="targetPoint" />
          </mxGeometry>
        </mxCell>
        <mxCell id="rkM7MUImtoLyCxUK9l4K-56" value="其他集群" style="rounded=1;whiteSpace=wrap;html=1;fillColor=#e1d5e7;strokeColor=#9673a6;" vertex="1" parent="1">
          <mxGeometry x="1010" y="190" width="80" height="60" as="geometry" />
        </mxCell>
        <mxCell id="rkM7MUImtoLyCxUK9l4K-57" value="" style="endArrow=classic;startArrow=classic;html=1;entryX=0.225;entryY=0;entryDx=0;entryDy=0;fillColor=#e3c800;strokeColor=#B09500;strokeWidth=2;exitX=0.5;exitY=1;exitDx=0;exitDy=0;entryPerimeter=0;" edge="1" parent="1" source="rkM7MUImtoLyCxUK9l4K-56" target="rkM7MUImtoLyCxUK9l4K-52">
          <mxGeometry width="50" height="50" relative="1" as="geometry">
            <mxPoint x="1050" y="260" as="sourcePoint" />
            <mxPoint x="1168.75" y="280" as="targetPoint" />
          </mxGeometry>
        </mxCell>
        <mxCell id="rkM7MUImtoLyCxUK9l4K-58" value="" style="endArrow=classic;startArrow=classic;html=1;entryX=0;entryY=0.5;entryDx=0;entryDy=0;fillColor=#e51400;strokeColor=#B20000;strokeWidth=2;" edge="1" parent="1" source="rkM7MUImtoLyCxUK9l4K-56" target="rkM7MUImtoLyCxUK9l4K-54">
          <mxGeometry width="50" height="50" relative="1" as="geometry">
            <mxPoint x="1350" y="500" as="sourcePoint" />
            <mxPoint x="1400" y="450" as="targetPoint" />
          </mxGeometry>
        </mxCell>
        <mxCell id="rkM7MUImtoLyCxUK9l4K-60" value="" style="whiteSpace=wrap;html=1;aspect=fixed;" vertex="1" parent="1">
          <mxGeometry x="150" y="680" width="230" height="230" as="geometry" />
        </mxCell>
        <mxCell id="rkM7MUImtoLyCxUK9l4K-61" value="YEureka服务集群" style="rounded=1;whiteSpace=wrap;html=1;fillColor=#d5e8d4;strokeColor=#82b366;" vertex="1" parent="1">
          <mxGeometry x="170" y="710" width="200" height="60" as="geometry" />
        </mxCell>
        <mxCell id="rkM7MUImtoLyCxUK9l4K-62" value="IDC-A" style="text;html=1;strokeColor=none;fillColor=none;align=center;verticalAlign=middle;whiteSpace=wrap;rounded=0;" vertex="1" parent="1">
          <mxGeometry x="150" y="680" width="60" height="20" as="geometry" />
        </mxCell>
        <mxCell id="rkM7MUImtoLyCxUK9l4K-63" value="其他集群" style="rounded=1;whiteSpace=wrap;html=1;fillColor=#f8cecc;strokeColor=#b85450;arcSize=27;" vertex="1" parent="1">
          <mxGeometry x="280" y="820" width="80" height="60" as="geometry" />
        </mxCell>
        <mxCell id="rkM7MUImtoLyCxUK9l4K-65" value="其他集群" style="rounded=1;whiteSpace=wrap;html=1;fillColor=#e1d5e7;strokeColor=#9673a6;" vertex="1" parent="1">
          <mxGeometry x="170" y="820" width="80" height="60" as="geometry" />
        </mxCell>
        <mxCell id="rkM7MUImtoLyCxUK9l4K-66" value="" style="endArrow=classic;startArrow=classic;html=1;fillColor=#e3c800;strokeColor=#B09500;strokeWidth=2;entryX=0.2;entryY=1;entryDx=0;entryDy=0;entryPerimeter=0;exitX=0.5;exitY=0;exitDx=0;exitDy=0;" edge="1" parent="1" source="rkM7MUImtoLyCxUK9l4K-65" target="rkM7MUImtoLyCxUK9l4K-61">
          <mxGeometry width="50" height="50" relative="1" as="geometry">
            <mxPoint x="220" y="810" as="sourcePoint" />
            <mxPoint x="215" y="790" as="targetPoint" />
          </mxGeometry>
        </mxCell>
        <mxCell id="rkM7MUImtoLyCxUK9l4K-67" value="" style="endArrow=classic;startArrow=classic;html=1;entryX=0;entryY=0.5;entryDx=0;entryDy=0;fillColor=#e51400;strokeColor=#B20000;strokeWidth=2;" edge="1" parent="1" source="rkM7MUImtoLyCxUK9l4K-65" target="rkM7MUImtoLyCxUK9l4K-63">
          <mxGeometry width="50" height="50" relative="1" as="geometry">
            <mxPoint x="510" y="1030" as="sourcePoint" />
            <mxPoint x="560" y="980" as="targetPoint" />
          </mxGeometry>
        </mxCell>
        <mxCell id="rkM7MUImtoLyCxUK9l4K-68" value="" style="whiteSpace=wrap;html=1;aspect=fixed;" vertex="1" parent="1">
          <mxGeometry x="990" y="680" width="230" height="230" as="geometry" />
        </mxCell>
        <mxCell id="rkM7MUImtoLyCxUK9l4K-70" value="IDC-A" style="text;html=1;strokeColor=none;fillColor=none;align=center;verticalAlign=middle;whiteSpace=wrap;rounded=0;" vertex="1" parent="1">
          <mxGeometry x="990" y="680" width="60" height="20" as="geometry" />
        </mxCell>
        <mxCell id="rkM7MUImtoLyCxUK9l4K-74" value="" style="endArrow=classic;startArrow=classic;html=1;entryX=0.225;entryY=0;entryDx=0;entryDy=0;fillColor=#e3c800;strokeColor=#B09500;strokeWidth=2;exitX=0.5;exitY=1;exitDx=0;exitDy=0;entryPerimeter=0;" edge="1" parent="1" target="rkM7MUImtoLyCxUK9l4K-69">
          <mxGeometry width="50" height="50" relative="1" as="geometry">
            <mxPoint x="1049.9999999999995" y="779.9999999999995" as="sourcePoint" />
            <mxPoint x="1168.75" y="810" as="targetPoint" />
          </mxGeometry>
        </mxCell>
        <mxCell id="rkM7MUImtoLyCxUK9l4K-75" value="" style="endArrow=classic;startArrow=classic;html=1;entryX=0;entryY=0.5;entryDx=0;entryDy=0;fillColor=#e51400;strokeColor=#B20000;strokeWidth=2;" edge="1" parent="1" target="rkM7MUImtoLyCxUK9l4K-71">
          <mxGeometry width="50" height="50" relative="1" as="geometry">
            <mxPoint x="1089.9999999999995" y="749.9999999999995" as="sourcePoint" />
            <mxPoint x="1400" y="980" as="targetPoint" />
          </mxGeometry>
        </mxCell>
        <mxCell id="rkM7MUImtoLyCxUK9l4K-79" value="" style="endArrow=classic;startArrow=classic;html=1;fillColor=#e3c800;strokeColor=#B09500;strokeWidth=2;entryX=0.75;entryY=1;entryDx=0;entryDy=0;exitX=0.5;exitY=0;exitDx=0;exitDy=0;" edge="1" parent="1" source="rkM7MUImtoLyCxUK9l4K-63" target="rkM7MUImtoLyCxUK9l4K-61">
          <mxGeometry width="50" height="50" relative="1" as="geometry">
            <mxPoint x="220" y="829.9999999999995" as="sourcePoint" />
            <mxPoint x="220" y="779.9999999999995" as="targetPoint" />
          </mxGeometry>
        </mxCell>
        <mxCell id="rkM7MUImtoLyCxUK9l4K-86" value="YEureka服务集群" style="rounded=1;whiteSpace=wrap;html=1;fillColor=#d5e8d4;strokeColor=#82b366;" vertex="1" parent="1">
          <mxGeometry x="1010" y="710" width="200" height="60" as="geometry" />
        </mxCell>
        <mxCell id="rkM7MUImtoLyCxUK9l4K-87" value="其他集群" style="rounded=1;whiteSpace=wrap;html=1;fillColor=#f8cecc;strokeColor=#b85450;arcSize=27;" vertex="1" parent="1">
          <mxGeometry x="1120" y="820" width="80" height="60" as="geometry" />
        </mxCell>
        <mxCell id="rkM7MUImtoLyCxUK9l4K-88" value="其他集群" style="rounded=1;whiteSpace=wrap;html=1;fillColor=#e1d5e7;strokeColor=#9673a6;" vertex="1" parent="1">
          <mxGeometry x="1010" y="820" width="80" height="60" as="geometry" />
        </mxCell>
        <mxCell id="rkM7MUImtoLyCxUK9l4K-89" value="" style="endArrow=classic;startArrow=classic;html=1;fillColor=#e3c800;strokeColor=#B09500;strokeWidth=2;entryX=0.2;entryY=1;entryDx=0;entryDy=0;entryPerimeter=0;exitX=0.5;exitY=0;exitDx=0;exitDy=0;" edge="1" parent="1" source="rkM7MUImtoLyCxUK9l4K-88" target="rkM7MUImtoLyCxUK9l4K-86">
          <mxGeometry width="50" height="50" relative="1" as="geometry">
            <mxPoint x="1060" y="810" as="sourcePoint" />
            <mxPoint x="1055" y="790" as="targetPoint" />
          </mxGeometry>
        </mxCell>
        <mxCell id="rkM7MUImtoLyCxUK9l4K-90" value="" style="endArrow=classic;startArrow=classic;html=1;fillColor=#e3c800;strokeColor=#B09500;strokeWidth=2;entryX=0.75;entryY=1;entryDx=0;entryDy=0;exitX=0.5;exitY=0;exitDx=0;exitDy=0;" edge="1" parent="1" source="rkM7MUImtoLyCxUK9l4K-87" target="rkM7MUImtoLyCxUK9l4K-86">
          <mxGeometry width="50" height="50" relative="1" as="geometry">
            <mxPoint x="1060" y="829.9999999999995" as="sourcePoint" />
            <mxPoint x="1060" y="779.9999999999995" as="targetPoint" />
          </mxGeometry>
        </mxCell>
        <mxCell id="rkM7MUImtoLyCxUK9l4K-91" value="" style="endArrow=classic;startArrow=classic;html=1;fillColor=#76608a;strokeColor=#432D57;strokeWidth=2;" edge="1" parent="1" target="rkM7MUImtoLyCxUK9l4K-61">
          <mxGeometry width="50" height="50" relative="1" as="geometry">
            <mxPoint x="270" y="359" as="sourcePoint" />
            <mxPoint x="415" y="358.82" as="targetPoint" />
          </mxGeometry>
        </mxCell>
        <mxCell id="rkM7MUImtoLyCxUK9l4K-92" value="" style="endArrow=classic;startArrow=classic;html=1;fillColor=#76608a;strokeColor=#432D57;strokeWidth=2;exitX=0;exitY=0.5;exitDx=0;exitDy=0;entryX=1;entryY=0.5;entryDx=0;entryDy=0;" edge="1" parent="1" source="rkM7MUImtoLyCxUK9l4K-86" target="rkM7MUImtoLyCxUK9l4K-61">
          <mxGeometry width="50" height="50" relative="1" as="geometry">
            <mxPoint x="280" y="369" as="sourcePoint" />
            <mxPoint x="280" y="719.9999999999995" as="targetPoint" />
          </mxGeometry>
        </mxCell>
        <mxCell id="rkM7MUImtoLyCxUK9l4K-93" value="" style="endArrow=classic;startArrow=classic;html=1;fillColor=#76608a;strokeColor=#432D57;strokeWidth=2;exitX=0;exitY=0.5;exitDx=0;exitDy=0;" edge="1" parent="1" target="rkM7MUImtoLyCxUK9l4K-86">
          <mxGeometry width="50" height="50" relative="1" as="geometry">
            <mxPoint x="1109.9999999999995" y="358.81999999999954" as="sourcePoint" />
            <mxPoint x="470" y="358.81999999999954" as="targetPoint" />
          </mxGeometry>
        </mxCell>
        <mxCell id="rkM7MUImtoLyCxUK9l4K-94" value="" style="endArrow=classic;startArrow=classic;html=1;fillColor=#76608a;strokeColor=#432D57;strokeWidth=2;" edge="1" parent="1" target="rkM7MUImtoLyCxUK9l4K-52">
          <mxGeometry width="50" height="50" relative="1" as="geometry">
            <mxPoint x="365" y="329" as="sourcePoint" />
            <mxPoint x="365" y="679.9999999999995" as="targetPoint" />
          </mxGeometry>
        </mxCell>
        <mxCell id="rkM7MUImtoLyCxUK9l4K-95" value="" style="endArrow=classic;startArrow=classic;html=1;fillColor=#e51400;strokeColor=#B20000;strokeWidth=2;" edge="1" parent="1">
          <mxGeometry width="50" height="50" relative="1" as="geometry">
            <mxPoint x="1090" y="849.2900000000001" as="sourcePoint" />
            <mxPoint x="1120" y="849" as="targetPoint" />
          </mxGeometry>
        </mxCell>
      </root>
    </mxGraphModel>
  </diagram>
</mxfile>
